<svg width="11" height="11" viewBox="0 0 11 11" fill="none" xmlns="http://www.w3.org/2000/svg">
<path d="M10.5 5.5C10.5 5.81851 10.2416 6.07692 9.92308 6.07692H6.07692V9.92308C6.07692 10.2416 5.81851 10.5 5.5 10.5C5.18149 10.5 4.92308 10.2416 4.92308 9.92308V6.07692H1.07692C0.758413 6.07692 0.5 5.81851 0.5 5.5C0.5 5.18149 0.758413 4.92308 1.07692 4.92308H4.92308V1.07692C4.92308 0.758413 5.18149 0.5 5.5 0.5C5.81851 0.5 6.07692 0.758413 6.07692 1.07692V4.92308H9.92308C10.2416 4.92308 10.5 5.18149 10.5 5.5Z" fill="#aa8a75"/>
</svg>
